<svg id="Layer_1" data-name="Layer 1" xmlns="http://www.w3.org/2000/svg" xmlns:xlink="http://www.w3.org/1999/xlink" viewBox="0 0 345.78 345.78"><defs><style>.cls-1{fill:none;stroke-width:8px;stroke:url(#linear-gradient);}.cls-1,.cls-4{stroke-miterlimit:10;}.cls-2,.cls-4{fill:#4b5956;}.cls-3{fill:#8d9f9b;}.cls-4{stroke:#4d4d4d;stroke-width:2px;}</style><linearGradient id="linear-gradient" y1="172.89" x2="345.78" y2="172.89" gradientUnits="userSpaceOnUse"><stop offset="0" stop-color="#aa71ff"/><stop offset="1" stop-color="#fd612c"/></linearGradient></defs><circle class="cls-1" cx="172.89" cy="172.89" r="168.89"/><rect class="cls-2" x="169.52" y="14.67" width="8.43" height="29.11"/><rect class="cls-2" x="149.68" y="85.6" width="8.43" height="29.11" transform="translate(-81.57 38.26) rotate(-30)"/><rect class="cls-2" x="96.79" y="137.88" width="8.43" height="29.11" transform="translate(-133.62 111.58) rotate(-60)"/><rect class="cls-2" x="77.12" y="209.61" width="8.43" height="29.11" transform="translate(-194.94 253.38) rotate(-90)"/><rect class="cls-2" x="95.94" y="281.55" width="8.43" height="29.11" transform="translate(-158.31 478.79) rotate(-120)"/><rect class="cls-2" x="148.22" y="334.45" width="8.43" height="29.11" transform="translate(57.84 675.36) rotate(-150)"/><rect class="cls-2" x="219.95" y="354.12" width="8.43" height="29.11" transform="translate(396.21 685.23) rotate(-180)"/><rect class="cls-2" x="291.89" y="335.29" width="8.43" height="29.11" transform="translate(675.36 452.65) rotate(150)"/><rect class="cls-2" x="344.79" y="283.01" width="8.43" height="29.11" transform="matrix(-0.5, 0.87, -0.87, -0.5, 729.09, 91.99)"/><rect class="cls-2" x="364.46" y="211.29" width="8.43" height="29.11" transform="translate(542.4 -194.94) rotate(90)"/><rect class="cls-2" x="345.63" y="139.34" width="8.43" height="29.11" transform="translate(256.09 -278.14) rotate(60)"/><rect class="cls-2" x="293.35" y="86.44" width="8.43" height="29.11" transform="matrix(0.87, 0.5, -0.5, 0.87, 38.26, -187.36)"/><rect class="cls-3" x="208.03" y="67.51" width="4.34" height="17.36" transform="translate(-58.92 -29.72) rotate(-6)"/><rect class="cls-3" x="192.56" y="69.87" width="4.34" height="17.36" transform="translate(-64.19 -9.91) rotate(-12)"/><rect class="cls-3" x="177.42" y="73.84" width="4.34" height="17.36" transform="translate(-68.82 7.43) rotate(-18)"/><rect class="cls-3" x="162.77" y="79.36" width="4.34" height="17.36" transform="translate(-73.66 22.59) rotate(-24)"/><rect class="cls-3" x="135.61" y="94.84" width="4.34" height="17.36" transform="translate(-86.65 48.65) rotate(-36)"/><rect class="cls-3" x="123.39" y="104.62" width="4.34" height="17.36" transform="translate(-95.67 61.01) rotate(-42)"/><rect class="cls-3" x="112.26" y="115.63" width="4.34" height="17.36" transform="translate(-106.63 74.06) rotate(-48)"/><rect class="cls-3" x="102.34" y="127.74" width="4.34" height="17.36" transform="translate(-119.4 88.68) rotate(-54)"/><rect class="cls-3" x="86.56" y="154.73" width="4.34" height="17.36" transform="translate(-148.75 125.89) rotate(-66)"/><rect class="cls-3" x="80.87" y="169.31" width="4.34" height="17.36" transform="translate(-164.01 149.85) rotate(-72)"/><rect class="cls-3" x="76.73" y="184.41" width="4.34" height="17.36" transform="translate(-178.48 178.01) rotate(-78)"/><rect class="cls-3" x="74.19" y="199.85" width="4.34" height="17.36" transform="translate(-191.12 210.57) rotate(-84)"/><rect class="cls-3" x="74.02" y="231.11" width="4.34" height="17.36" transform="translate(-206.44 288.52) rotate(-96)"/><rect class="cls-3" x="76.38" y="246.59" width="4.34" height="17.36" transform="translate(-206.92 333.07) rotate(-102)"/><rect class="cls-3" x="80.35" y="261.73" width="4.34" height="17.36" transform="translate(-201.27 380.34) rotate(-108)"/><rect class="cls-3" x="85.87" y="276.38" width="4.34" height="17.36" transform="translate(-188.67 429.32) rotate(-114)"/><rect class="cls-3" x="101.35" y="303.54" width="4.34" height="17.36" transform="translate(-140.33 527.38) rotate(-126)"/><rect class="cls-3" x="111.14" y="315.76" width="4.34" height="17.36" transform="translate(-104.09 573.62) rotate(-132)"/><rect class="cls-3" x="122.14" y="326.89" width="4.34" height="17.36" transform="translate(-59.96 616.02) rotate(-138)"/><rect class="cls-3" x="134.25" y="336.81" width="4.34" height="17.36" transform="translate(-8.39 653.07) rotate(-144)"/><rect class="cls-3" x="161.24" y="352.59" width="4.34" height="17.36" transform="translate(113.64 705.67) rotate(-156)"/><rect class="cls-3" x="175.82" y="358.28" width="4.34" height="17.36" transform="translate(181.76 718.86) rotate(-162)"/><rect class="cls-3" x="190.92" y="362.42" width="4.34" height="17.36" transform="translate(252.69 722.13) rotate(-168)"/><rect class="cls-3" x="206.36" y="364.95" width="4.34" height="17.36" transform="translate(324.76 714.91) rotate(-174)"/><rect class="cls-3" x="237.63" y="365.13" width="4.34" height="17.36" transform="translate(465.24 668.4) rotate(174)"/><rect class="cls-3" x="253.1" y="362.77" width="4.34" height="17.36" transform="translate(530.08 629.6) rotate(168)"/><rect class="cls-3" x="268.24" y="358.8" width="4.34" height="17.36" transform="translate(589.04 581.31) rotate(162)"/><rect class="cls-3" x="282.89" y="353.28" width="4.34" height="17.36" transform="translate(640.58 524.57) rotate(156)"/><rect class="cls-3" x="310.05" y="337.8" width="4.34" height="17.36" transform="translate(716.35 391.15) rotate(144)"/><rect class="cls-3" x="322.27" y="328.01" width="4.34" height="17.36" transform="translate(738.73 317.71) rotate(138)"/><rect class="cls-3" x="333.4" y="317.01" width="4.34" height="17.36" transform="translate(750.03 242.13) rotate(132)"/><rect class="cls-3" x="343.32" y="304.9" width="4.34" height="17.36" transform="translate(750.14 166.28) rotate(126)"/><rect class="cls-3" x="359.1" y="277.91" width="4.34" height="17.36" transform="translate(717.92 21.01) rotate(114)"/><rect class="cls-3" x="364.79" y="263.33" width="4.34" height="17.36" transform="translate(686.95 -45.05) rotate(108)"/><rect class="cls-3" x="368.93" y="248.23" width="4.34" height="17.36" transform="translate(647.45 -104.77) rotate(102)"/><rect class="cls-3" x="371.47" y="232.79" width="4.34" height="17.36" transform="translate(600.73 -156.99) rotate(96)"/><rect class="cls-3" x="371.64" y="201.52" width="4.34" height="17.36" transform="translate(491.68 -235.64) rotate(84)"/><rect class="cls-3" x="369.28" y="186.05" width="4.34" height="17.36" transform="translate(432.59 -261.2) rotate(78)"/><rect class="cls-3" x="365.31" y="170.91" width="4.34" height="17.36" transform="translate(372.61 -277.51) rotate(72)"/><rect class="cls-3" x="359.79" y="156.26" width="4.34" height="17.36" transform="translate(313.31 -284.92) rotate(66)"/><rect class="cls-3" x="344.31" y="129.1" width="4.34" height="17.36" transform="translate(202.18 -275.62) rotate(54)"/><rect class="cls-3" x="334.52" y="116.88" width="4.34" height="17.36" transform="translate(152.6 -260.78) rotate(48)"/><rect class="cls-3" x="323.52" y="105.75" width="4.34" height="17.36" transform="translate(108.11 -240.65) rotate(42)"/><rect class="cls-3" x="311.41" y="95.83" width="4.34" height="17.36" transform="translate(69.21 -216.47) rotate(36)"/><rect class="cls-3" x="284.42" y="80.05" width="4.34" height="17.36" transform="translate(8.76 -161.01) rotate(24)"/><rect class="cls-3" x="269.84" y="74.36" width="4.34" height="17.36" transform="translate(-13.14 -132.1) rotate(18)"/><rect class="cls-3" x="254.74" y="70.22" width="4.34" height="17.36" transform="translate(-30.09 -103.8) rotate(12)"/><rect class="cls-3" x="239.3" y="67.68" width="4.34" height="17.36" transform="translate(-42.8 -76.93) rotate(6)"/><path class="cls-4" d="M282.55,119.81V118.5a7,7,0,0,0,2.58-.6,3,3,0,0,0,1.09-2h1.34v13.52h-1.82v-9.61Z" transform="translate(-52.11 -52.11)"/><path class="cls-4" d="M325.61,169.35a5.85,5.85,0,0,1,2.46-2.36l1.82-1.05a8.53,8.53,0,0,0,1.72-1.22,2.49,2.49,0,0,0,.78-1.8,2.56,2.56,0,0,0-.71-1.89,2.63,2.63,0,0,0-1.9-.7,2.49,2.49,0,0,0-2.43,1.33,4.9,4.9,0,0,0-.4,2h-1.73a6.21,6.21,0,0,1,.65-2.89,4.12,4.12,0,0,1,3.92-2,4,4,0,0,1,4.48,4.07,3.82,3.82,0,0,1-1.14,2.78,11.19,11.19,0,0,1-2.38,1.63l-1.3.72a8.71,8.71,0,0,0-1.46,1,3.62,3.62,0,0,0-1.2,1.83h7.42v1.61h-9.32A7.87,7.87,0,0,1,325.61,169.35Z" transform="translate(-52.11 -52.11)"/><path class="cls-4" d="M342.56,232.09a4.9,4.9,0,0,1-1.08-3.21h1.78a4.4,4.4,0,0,0,.49,1.91,2.58,2.58,0,0,0,2.4,1.07,3.13,3.13,0,0,0,2.16-.72,2.38,2.38,0,0,0,.82-1.86,2.17,2.17,0,0,0-.86-2,4.38,4.38,0,0,0-2.39-.56h-.7v-1.51c.18,0,.33,0,.45,0H346a3.6,3.6,0,0,0,1.57-.3,1.94,1.94,0,0,0,1.08-1.9,1.83,1.83,0,0,0-.72-1.56,2.67,2.67,0,0,0-1.68-.55,2.5,2.5,0,0,0-2.36,1.13,4.11,4.11,0,0,0-.41,1.79h-1.68a5.18,5.18,0,0,1,.6-2.58,3.82,3.82,0,0,1,3.67-1.9,5,5,0,0,1,3.22.93,3.26,3.26,0,0,1,1.13,2.68,3,3,0,0,1-.67,2,2.75,2.75,0,0,1-1.08.76,3,3,0,0,1,1.67,1.14A3.41,3.41,0,0,1,351,229a4.18,4.18,0,0,1-1.28,3.16,5.06,5.06,0,0,1-3.64,1.23A4.24,4.24,0,0,1,342.56,232.09Z" transform="translate(-52.11 -52.11)"/><path class="cls-4" d="M329.8,291.79v-3.32h-5.95V286.8l6.21-8.62h1.45V287h2v1.49h-2v3.32Zm0-4.81v-6.16L325.42,287Z" transform="translate(-52.11 -52.11)"/><path class="cls-4" d="M280.8,332.13a2.38,2.38,0,0,0,1.36,2,3.24,3.24,0,0,0,1.4.29,2.66,2.66,0,0,0,2.25-1,3.53,3.53,0,0,0,.73-2.14,2.78,2.78,0,0,0-.87-2.2,3,3,0,0,0-2.08-.78,3.09,3.09,0,0,0-1.51.34,3.26,3.26,0,0,0-1.08.95l-1.48-.09,1-7.31h7.05v1.65h-5.78l-.57,3.78a4,4,0,0,1,.9-.54,4.52,4.52,0,0,1,1.75-.32,4.47,4.47,0,0,1,3.17,1.21,4,4,0,0,1,1.3,3.05,5.25,5.25,0,0,1-1.19,3.39,4.61,4.61,0,0,1-3.8,1.47,4.83,4.83,0,0,1-2.93-.93,3.7,3.7,0,0,1-1.43-2.87Z" transform="translate(-52.11 -52.11)"/><path class="cls-4" d="M227.54,337.92a3.94,3.94,0,0,1,.9,2.43h-1.69a2.94,2.94,0,0,0-.49-1.26,2.14,2.14,0,0,0-1.86-.86,2.59,2.59,0,0,0-2.28,1.33,7.69,7.69,0,0,0-.94,3.78,3.71,3.71,0,0,1,1.48-1.28,4.18,4.18,0,0,1,1.82-.38,4.42,4.42,0,0,1,3,1.09,4,4,0,0,1,1.27,3.25,4.93,4.93,0,0,1-1.2,3.27,4.27,4.27,0,0,1-3.44,1.43,4.4,4.4,0,0,1-3.29-1.45q-1.38-1.44-1.38-4.86a12.9,12.9,0,0,1,.62-4.3q1.19-3.37,4.33-3.37A3.74,3.74,0,0,1,227.54,337.92Zm-1.28,10.38a3.5,3.5,0,0,0,.67-2.14,3.65,3.65,0,0,0-.6-2,2.36,2.36,0,0,0-2.17-.94,2.68,2.68,0,0,0-2.76,2.93,3.24,3.24,0,0,0,.75,2.17,2.63,2.63,0,0,0,2.09.87A2.36,2.36,0,0,0,226.26,348.3Z" transform="translate(-52.11 -52.11)"/><path class="cls-4" d="M169.71,319.58v1.49a16.59,16.59,0,0,0-1.74,2.21,23.24,23.24,0,0,0-1.92,3.39,23.51,23.51,0,0,0-1.25,3.24c-.18.62-.42,1.63-.71,3h-1.88a23.21,23.21,0,0,1,2.84-7.74,25,25,0,0,1,2.73-3.89h-7.51v-1.72Z" transform="translate(-52.11 -52.11)"/><path class="cls-4" d="M116.7,280.48a2.67,2.67,0,0,1-.75-2,3.53,3.53,0,0,1,1.1-2.6,4.21,4.21,0,0,1,3.11-1.09,4.35,4.35,0,0,1,3.06,1,3.35,3.35,0,0,1,.47,4.46,4,4,0,0,1-1.12.88,4.28,4.28,0,0,1,1.33.89,3.42,3.42,0,0,1,.9,2.46,4.21,4.21,0,0,1-1.2,3,4.51,4.51,0,0,1-3.4,1.25,5.27,5.27,0,0,1-3.36-1.08,3.75,3.75,0,0,1-1.37-3.12,3.47,3.47,0,0,1,2.34-3.42A3.28,3.28,0,0,1,116.7,280.48Zm5.5,6.14a2.31,2.31,0,0,0,.78-1.91,2.5,2.5,0,0,0-.8-2,3.13,3.13,0,0,0-2.07-.68,2.83,2.83,0,0,0-2,.7,2.44,2.44,0,0,0-.78,1.93,2.63,2.63,0,0,0,.71,1.83,2.8,2.8,0,0,0,2.18.77A3,3,0,0,0,122.2,286.62Zm-.31-6.71a2.05,2.05,0,0,0,.63-1.51,2,2,0,0,0-.61-1.39,2.41,2.41,0,0,0-1.84-.64,2.22,2.22,0,0,0-1.78.64,2.18,2.18,0,0,0-.55,1.49,1.79,1.79,0,0,0,.71,1.5,2.68,2.68,0,0,0,1.68.54A2.4,2.4,0,0,0,121.89,279.91Z" transform="translate(-52.11 -52.11)"/><path class="cls-4" d="M102.09,228.32a2.18,2.18,0,0,0,1.09,2,2.42,2.42,0,0,0,1.18.28,2.63,2.63,0,0,0,2.08-1q.87-1,1.23-4.14a3.16,3.16,0,0,1-1.41,1.27,4.53,4.53,0,0,1-1.81.36,4,4,0,0,1-3.1-1.22,4.41,4.41,0,0,1-1.14-3.14,5,5,0,0,1,1.12-3.25,4,4,0,0,1,3.33-1.4,4.09,4.09,0,0,1,4.1,2.67,9.36,9.36,0,0,1,.62,3.68,12.06,12.06,0,0,1-.75,4.41c-.82,2.14-2.23,3.2-4.2,3.2a4.07,4.07,0,0,1-3-1,3.57,3.57,0,0,1-1-2.62Zm4.44-3.45a2.82,2.82,0,0,0,.84-2.33,3,3,0,0,0-.75-2.23,2.63,2.63,0,0,0-1.92-.74,2.52,2.52,0,0,0-2,.84,3.27,3.27,0,0,0-.73,2.24,3.19,3.19,0,0,0,.64,2.1,2.5,2.5,0,0,0,2.06.79A2.9,2.9,0,0,0,106.53,224.87Z" transform="translate(-52.11 -52.11)"/><path class="cls-4" d="M116.21,163.67v-1.31a7,7,0,0,0,2.58-.6,3,3,0,0,0,1.09-2h1.35v13.52H119.4v-9.61Z" transform="translate(-52.11 -52.11)"/><path class="cls-4" d="M134.21,161.88a9.68,9.68,0,0,1,.91,4.6,11,11,0,0,1-.82,4.57,4,4,0,0,1-3.91,2.6,3.92,3.92,0,0,1-3.64-2.12,9.77,9.77,0,0,1-1-4.76,12,12,0,0,1,.59-4,4.09,4.09,0,0,1,4.05-3.09A4,4,0,0,1,134.21,161.88Zm-1.71,9q.78-1.17.78-4.38a10.75,10.75,0,0,0-.57-3.8,2.16,2.16,0,0,0-2.21-1.5,2.34,2.34,0,0,0-2.21,1.42,9.87,9.87,0,0,0-.69,4.18,10.44,10.44,0,0,0,.44,3.33,2.43,2.43,0,0,0,4.46.75Z" transform="translate(-52.11 -52.11)"/><path class="cls-4" d="M159.69,119.81V118.5a7,7,0,0,0,2.58-.6,3,3,0,0,0,1.09-2h1.35v13.52h-1.82v-9.61Z" transform="translate(-52.11 -52.11)"/><path class="cls-4" d="M169.06,119.81V118.5a7,7,0,0,0,2.58-.6,3,3,0,0,0,1.09-2h1.35v13.52h-1.83v-9.61Z" transform="translate(-52.11 -52.11)"/><path class="cls-4" d="M215.16,103.25V102a7,7,0,0,0,2.58-.61,2.93,2.93,0,0,0,1.09-2h1.35v13.52h-1.82v-9.62Z" transform="translate(-52.11 -52.11)"/><path class="cls-4" d="M225.43,109.81a5.91,5.91,0,0,1,2.46-2.36l1.82-1a8.58,8.58,0,0,0,1.72-1.21,2.66,2.66,0,0,0,.07-3.69,2.59,2.59,0,0,0-1.9-.7,2.48,2.48,0,0,0-2.43,1.33,4.86,4.86,0,0,0-.4,2H225a6.18,6.18,0,0,1,.65-2.89,4.11,4.11,0,0,1,3.92-2,4,4,0,0,1,4.48,4.07A3.83,3.83,0,0,1,233,106.1a11.58,11.58,0,0,1-2.38,1.63l-1.3.72a8.15,8.15,0,0,0-1.46,1,3.62,3.62,0,0,0-1.2,1.83H234v1.61h-9.32A7.92,7.92,0,0,1,225.43,109.81Z" transform="translate(-52.11 -52.11)"/></svg>